<mxfile host="app.diagrams.net" agent="Mozilla/5.0 (Windows NT 10.0; Win64; x64) AppleWebKit/537.36 (KHTML, like Gecko) Chrome/128.0.0.0 Safari/537.36 Edg/128.0.0.0" version="24.7.14">
  <diagram id="R2lEEEUBdFMjLlhIrx00" name="Page-1">
    <mxGraphModel dx="909" dy="477" grid="1" gridSize="10" guides="1" tooltips="1" connect="1" arrows="1" fold="1" page="1" pageScale="1" pageWidth="850" pageHeight="1100" math="0" shadow="0" extFonts="Permanent Marker^https://fonts.googleapis.com/css?family=Permanent+Marker">
      <root>
        <mxCell id="0" />
        <mxCell id="1" parent="0" />
        <mxCell id="9mGKXTDG_qa7bDeS5Nxo-1" value="Artist" style="rounded=0;whiteSpace=wrap;html=1;" parent="1" vertex="1">
          <mxGeometry x="227" y="200" width="153" height="90" as="geometry" />
        </mxCell>
        <mxCell id="9mGKXTDG_qa7bDeS5Nxo-2" value="Fan" style="rounded=0;whiteSpace=wrap;html=1;" parent="1" vertex="1">
          <mxGeometry x="783.5" y="169.75" width="115" height="60" as="geometry" />
        </mxCell>
        <mxCell id="9mGKXTDG_qa7bDeS5Nxo-6" value="Email" style="ellipse;whiteSpace=wrap;html=1;" parent="1" vertex="1">
          <mxGeometry x="106" y="380" width="60" height="35.5" as="geometry" />
        </mxCell>
        <mxCell id="9mGKXTDG_qa7bDeS5Nxo-7" value="Password" style="ellipse;whiteSpace=wrap;html=1;" parent="1" vertex="1">
          <mxGeometry x="106" y="324.5" width="70" height="45" as="geometry" />
        </mxCell>
        <mxCell id="9mGKXTDG_qa7bDeS5Nxo-8" value="ProfilePhoto" style="ellipse;whiteSpace=wrap;html=1;" parent="1" vertex="1">
          <mxGeometry x="104" y="264.5" width="74" height="49" as="geometry" />
        </mxCell>
        <mxCell id="9mGKXTDG_qa7bDeS5Nxo-9" value="Age" style="ellipse;whiteSpace=wrap;html=1;dashed=1;" parent="1" vertex="1">
          <mxGeometry x="111" y="110" width="50" height="35" as="geometry" />
        </mxCell>
        <mxCell id="9mGKXTDG_qa7bDeS5Nxo-10" value="DateOfBirth" style="ellipse;whiteSpace=wrap;html=1;" parent="1" vertex="1">
          <mxGeometry x="101" y="160" width="70" height="50" as="geometry" />
        </mxCell>
        <mxCell id="9mGKXTDG_qa7bDeS5Nxo-11" value="FullName" style="ellipse;whiteSpace=wrap;html=1;" parent="1" vertex="1">
          <mxGeometry x="200" y="132.25" width="70" height="40" as="geometry" />
        </mxCell>
        <mxCell id="9mGKXTDG_qa7bDeS5Nxo-12" value="ArtistLevel" style="ellipse;whiteSpace=wrap;html=1;" parent="1" vertex="1">
          <mxGeometry x="321" y="40.42999999999999" width="70" height="41.93" as="geometry" />
        </mxCell>
        <mxCell id="9mGKXTDG_qa7bDeS5Nxo-14" value="Gender" style="ellipse;whiteSpace=wrap;html=1;" parent="1" vertex="1">
          <mxGeometry x="425" y="77.14" width="60" height="40" as="geometry" />
        </mxCell>
        <mxCell id="9mGKXTDG_qa7bDeS5Nxo-15" value="ArtistID" style="ellipse;whiteSpace=wrap;html=1;" parent="1" vertex="1">
          <mxGeometry x="106" y="428.57" width="70" height="45" as="geometry" />
        </mxCell>
        <mxCell id="9mGKXTDG_qa7bDeS5Nxo-17" value="" style="endArrow=none;html=1;rounded=0;entryX=1;entryY=0.5;entryDx=0;entryDy=0;exitX=0.058;exitY=0.019;exitDx=0;exitDy=0;exitPerimeter=0;" parent="1" source="9mGKXTDG_qa7bDeS5Nxo-1" target="9mGKXTDG_qa7bDeS5Nxo-46" edge="1">
          <mxGeometry width="50" height="50" relative="1" as="geometry">
            <mxPoint x="220" y="240" as="sourcePoint" />
            <mxPoint x="146.01999999999998" y="190.01999999999998" as="targetPoint" />
            <Array as="points" />
          </mxGeometry>
        </mxCell>
        <mxCell id="9mGKXTDG_qa7bDeS5Nxo-18" value="" style="endArrow=none;html=1;rounded=0;entryX=0.986;entryY=0.704;entryDx=0;entryDy=0;entryPerimeter=0;exitX=0;exitY=0.25;exitDx=0;exitDy=0;" parent="1" target="9mGKXTDG_qa7bDeS5Nxo-8" edge="1" source="9mGKXTDG_qa7bDeS5Nxo-1">
          <mxGeometry width="50" height="50" relative="1" as="geometry">
            <mxPoint x="230" y="260" as="sourcePoint" />
            <mxPoint x="156.9988981395736" y="190.00463965120468" as="targetPoint" />
          </mxGeometry>
        </mxCell>
        <mxCell id="9mGKXTDG_qa7bDeS5Nxo-19" value="" style="endArrow=none;html=1;rounded=0;exitX=0;exitY=0.75;exitDx=0;exitDy=0;entryX=1;entryY=0.5;entryDx=0;entryDy=0;" parent="1" source="9mGKXTDG_qa7bDeS5Nxo-1" target="9mGKXTDG_qa7bDeS5Nxo-6" edge="1">
          <mxGeometry width="50" height="50" relative="1" as="geometry">
            <mxPoint x="240" y="284.9950423646112" as="sourcePoint" />
            <mxPoint x="159.9988981395736" y="251.65463965120466" as="targetPoint" />
          </mxGeometry>
        </mxCell>
        <mxCell id="9mGKXTDG_qa7bDeS5Nxo-20" value="" style="endArrow=none;html=1;rounded=0;entryX=1;entryY=0.5;entryDx=0;entryDy=0;exitX=0.017;exitY=0.894;exitDx=0;exitDy=0;exitPerimeter=0;" parent="1" source="9mGKXTDG_qa7bDeS5Nxo-1" target="9mGKXTDG_qa7bDeS5Nxo-15" edge="1">
          <mxGeometry width="50" height="50" relative="1" as="geometry">
            <mxPoint x="230" y="280" as="sourcePoint" />
            <mxPoint x="189.9988981395736" y="291.0046396512047" as="targetPoint" />
            <Array as="points">
              <mxPoint x="190" y="370" />
            </Array>
          </mxGeometry>
        </mxCell>
        <mxCell id="9mGKXTDG_qa7bDeS5Nxo-22" value="" style="endArrow=none;html=1;rounded=0;exitX=0.125;exitY=-0.019;exitDx=0;exitDy=0;entryX=0.986;entryY=0.74;entryDx=0;entryDy=0;entryPerimeter=0;exitPerimeter=0;" parent="1" source="9mGKXTDG_qa7bDeS5Nxo-1" target="9mGKXTDG_qa7bDeS5Nxo-10" edge="1">
          <mxGeometry width="50" height="50" relative="1" as="geometry">
            <mxPoint x="250" y="225" as="sourcePoint" />
            <mxPoint x="176.9988981395736" y="146.65463965120466" as="targetPoint" />
          </mxGeometry>
        </mxCell>
        <mxCell id="9mGKXTDG_qa7bDeS5Nxo-23" value="" style="endArrow=none;html=1;rounded=0;entryX=0.66;entryY=0.971;entryDx=0;entryDy=0;entryPerimeter=0;" parent="1" target="9mGKXTDG_qa7bDeS5Nxo-9" edge="1" source="9mGKXTDG_qa7bDeS5Nxo-1">
          <mxGeometry width="50" height="50" relative="1" as="geometry">
            <mxPoint x="240" y="230" as="sourcePoint" />
            <mxPoint x="296.9988981395736" y="125.00463965120466" as="targetPoint" />
            <Array as="points">
              <mxPoint x="190" y="170" />
            </Array>
          </mxGeometry>
        </mxCell>
        <mxCell id="9mGKXTDG_qa7bDeS5Nxo-24" value="" style="endArrow=none;html=1;rounded=0;entryX=0.343;entryY=1.048;entryDx=0;entryDy=0;entryPerimeter=0;exitX=0.5;exitY=0;exitDx=0;exitDy=0;" parent="1" source="9mGKXTDG_qa7bDeS5Nxo-1" edge="1" target="9mGKXTDG_qa7bDeS5Nxo-12">
          <mxGeometry width="50" height="50" relative="1" as="geometry">
            <mxPoint x="280" y="220" as="sourcePoint" />
            <mxPoint x="210" y="90" as="targetPoint" />
            <Array as="points" />
          </mxGeometry>
        </mxCell>
        <mxCell id="9mGKXTDG_qa7bDeS5Nxo-25" value="" style="endArrow=none;html=1;rounded=0;entryX=0.5;entryY=1;entryDx=0;entryDy=0;exitX=0.25;exitY=0;exitDx=0;exitDy=0;" parent="1" target="9mGKXTDG_qa7bDeS5Nxo-11" edge="1" source="9mGKXTDG_qa7bDeS5Nxo-1">
          <mxGeometry width="50" height="50" relative="1" as="geometry">
            <mxPoint x="320" y="228" as="sourcePoint" />
            <mxPoint x="357.9988981395736" y="150.00463965120468" as="targetPoint" />
          </mxGeometry>
        </mxCell>
        <mxCell id="9mGKXTDG_qa7bDeS5Nxo-26" value="" style="endArrow=none;html=1;rounded=0;entryX=0.35;entryY=0.913;entryDx=0;entryDy=0;entryPerimeter=0;" parent="1" source="9mGKXTDG_qa7bDeS5Nxo-1" target="9mGKXTDG_qa7bDeS5Nxo-14" edge="1">
          <mxGeometry width="50" height="50" relative="1" as="geometry">
            <mxPoint x="280" y="220" as="sourcePoint" />
            <mxPoint x="379.9988981395736" y="190.00463965120468" as="targetPoint" />
          </mxGeometry>
        </mxCell>
        <mxCell id="9mGKXTDG_qa7bDeS5Nxo-27" value="" style="endArrow=none;html=1;rounded=0;entryX=0.5;entryY=1;entryDx=0;entryDy=0;" parent="1" source="9mGKXTDG_qa7bDeS5Nxo-1" target="9mGKXTDG_qa7bDeS5Nxo-44" edge="1">
          <mxGeometry width="50" height="50" relative="1" as="geometry">
            <mxPoint x="270" y="220" as="sourcePoint" />
            <mxPoint x="278" y="176.51999999999998" as="targetPoint" />
          </mxGeometry>
        </mxCell>
        <mxCell id="9mGKXTDG_qa7bDeS5Nxo-28" value="FirstName" style="ellipse;whiteSpace=wrap;html=1;" parent="1" vertex="1">
          <mxGeometry x="120" y="49.5" width="70" height="40" as="geometry" />
        </mxCell>
        <mxCell id="9mGKXTDG_qa7bDeS5Nxo-29" value="LastName" style="ellipse;whiteSpace=wrap;html=1;" parent="1" vertex="1">
          <mxGeometry x="200" y="34.5" width="60" height="40" as="geometry" />
        </mxCell>
        <mxCell id="9mGKXTDG_qa7bDeS5Nxo-30" value="" style="endArrow=none;html=1;rounded=0;exitX=0.375;exitY=0;exitDx=0;exitDy=0;exitPerimeter=0;" parent="1" source="9mGKXTDG_qa7bDeS5Nxo-11" edge="1" target="9mGKXTDG_qa7bDeS5Nxo-28">
          <mxGeometry width="50" height="50" relative="1" as="geometry">
            <mxPoint x="230" y="310" as="sourcePoint" />
            <mxPoint x="320" y="57.86" as="targetPoint" />
          </mxGeometry>
        </mxCell>
        <mxCell id="9mGKXTDG_qa7bDeS5Nxo-31" value="" style="endArrow=none;html=1;rounded=0;exitX=0.688;exitY=0.04;exitDx=0;exitDy=0;exitPerimeter=0;entryX=0.5;entryY=1;entryDx=0;entryDy=0;" parent="1" source="9mGKXTDG_qa7bDeS5Nxo-11" edge="1" target="9mGKXTDG_qa7bDeS5Nxo-29">
          <mxGeometry width="50" height="50" relative="1" as="geometry">
            <mxPoint x="370" y="110" as="sourcePoint" />
            <mxPoint x="373.78679656440363" y="52.00213562373084" as="targetPoint" />
          </mxGeometry>
        </mxCell>
        <mxCell id="9mGKXTDG_qa7bDeS5Nxo-34" value="JoinedDate" style="ellipse;whiteSpace=wrap;html=1;" parent="1" vertex="1">
          <mxGeometry x="340" y="94.5" width="70" height="50" as="geometry" />
        </mxCell>
        <mxCell id="9mGKXTDG_qa7bDeS5Nxo-37" value="" style="endArrow=none;html=1;rounded=0;entryX=0.5;entryY=1;entryDx=0;entryDy=0;exitX=0.575;exitY=0.031;exitDx=0;exitDy=0;exitPerimeter=0;" parent="1" source="9mGKXTDG_qa7bDeS5Nxo-1" target="9mGKXTDG_qa7bDeS5Nxo-34" edge="1">
          <mxGeometry width="50" height="50" relative="1" as="geometry">
            <mxPoint x="300" y="220" as="sourcePoint" />
            <mxPoint x="388" y="248" as="targetPoint" />
            <Array as="points" />
          </mxGeometry>
        </mxCell>
        <mxCell id="9mGKXTDG_qa7bDeS5Nxo-39" value="" style="endArrow=none;html=1;rounded=0;entryX=1;entryY=0.5;entryDx=0;entryDy=0;exitX=0;exitY=0.5;exitDx=0;exitDy=0;" parent="1" source="9mGKXTDG_qa7bDeS5Nxo-1" target="9mGKXTDG_qa7bDeS5Nxo-7" edge="1">
          <mxGeometry width="50" height="50" relative="1" as="geometry">
            <mxPoint x="230" y="240" as="sourcePoint" />
            <mxPoint x="151" y="197" as="targetPoint" />
          </mxGeometry>
        </mxCell>
        <mxCell id="9mGKXTDG_qa7bDeS5Nxo-44" value="Awards" style="ellipse;shape=doubleEllipse;margin=3;whiteSpace=wrap;html=1;align=center;" parent="1" vertex="1">
          <mxGeometry x="256" y="77.14" width="65" height="32.86" as="geometry" />
        </mxCell>
        <mxCell id="9mGKXTDG_qa7bDeS5Nxo-46" value="AreaOfInterest" style="ellipse;shape=doubleEllipse;margin=3;whiteSpace=wrap;html=1;align=center;" parent="1" vertex="1">
          <mxGeometry x="100" y="215.75" width="100" height="40" as="geometry" />
        </mxCell>
        <mxCell id="srRfTzQ2wNrr3aea_epK-1" value="FanID" style="ellipse;whiteSpace=wrap;html=1;align=center;fontStyle=4;" vertex="1" parent="1">
          <mxGeometry x="926.5" y="219.75" width="60" height="30" as="geometry" />
        </mxCell>
        <mxCell id="srRfTzQ2wNrr3aea_epK-2" value="Password" style="ellipse;whiteSpace=wrap;html=1;align=center;" vertex="1" parent="1">
          <mxGeometry x="928.5" y="175.75" width="70" height="40" as="geometry" />
        </mxCell>
        <mxCell id="srRfTzQ2wNrr3aea_epK-3" value="FullName" style="ellipse;whiteSpace=wrap;html=1;align=center;" vertex="1" parent="1">
          <mxGeometry x="788.5" y="114.75" width="80" height="35" as="geometry" />
        </mxCell>
        <mxCell id="srRfTzQ2wNrr3aea_epK-4" value="Email" style="ellipse;whiteSpace=wrap;html=1;align=center;" vertex="1" parent="1">
          <mxGeometry x="913.5" y="79.75" width="60" height="35" as="geometry" />
        </mxCell>
        <mxCell id="srRfTzQ2wNrr3aea_epK-5" value="UserName" style="ellipse;whiteSpace=wrap;html=1;align=center;" vertex="1" parent="1">
          <mxGeometry x="918.5" y="125" width="80" height="35" as="geometry" />
        </mxCell>
        <mxCell id="srRfTzQ2wNrr3aea_epK-6" value="FirstName" style="ellipse;whiteSpace=wrap;html=1;align=center;" vertex="1" parent="1">
          <mxGeometry x="838.5" y="59.75" width="80" height="30" as="geometry" />
        </mxCell>
        <mxCell id="srRfTzQ2wNrr3aea_epK-7" value="LastName" style="ellipse;whiteSpace=wrap;html=1;align=center;" vertex="1" parent="1">
          <mxGeometry x="753.5" y="54.75" width="70" height="30" as="geometry" />
        </mxCell>
        <mxCell id="srRfTzQ2wNrr3aea_epK-8" value="ProfilePhoto" style="ellipse;whiteSpace=wrap;html=1;align=center;" vertex="1" parent="1">
          <mxGeometry x="693.5" y="102.39" width="80" height="37.5" as="geometry" />
        </mxCell>
        <mxCell id="srRfTzQ2wNrr3aea_epK-9" value="Gender" style="ellipse;whiteSpace=wrap;html=1;align=center;" vertex="1" parent="1">
          <mxGeometry x="613.5" y="117.75" width="70" height="34.5" as="geometry" />
        </mxCell>
        <mxCell id="srRfTzQ2wNrr3aea_epK-13" value="" style="endArrow=none;html=1;rounded=0;exitX=1;exitY=1;exitDx=0;exitDy=0;entryX=0;entryY=0;entryDx=0;entryDy=0;" edge="1" parent="1" source="srRfTzQ2wNrr3aea_epK-9" target="9mGKXTDG_qa7bDeS5Nxo-2">
          <mxGeometry relative="1" as="geometry">
            <mxPoint x="753.5" y="229.75" as="sourcePoint" />
            <mxPoint x="913.5" y="229.75" as="targetPoint" />
          </mxGeometry>
        </mxCell>
        <mxCell id="srRfTzQ2wNrr3aea_epK-14" value="" style="endArrow=none;html=1;rounded=0;exitX=0.738;exitY=0.92;exitDx=0;exitDy=0;exitPerimeter=0;entryX=0.105;entryY=0;entryDx=0;entryDy=0;entryPerimeter=0;" edge="1" parent="1" source="srRfTzQ2wNrr3aea_epK-8" target="9mGKXTDG_qa7bDeS5Nxo-2">
          <mxGeometry relative="1" as="geometry">
            <mxPoint x="803.5" y="129.75" as="sourcePoint" />
            <mxPoint x="813.5" y="179.75" as="targetPoint" />
          </mxGeometry>
        </mxCell>
        <mxCell id="srRfTzQ2wNrr3aea_epK-15" value="" style="endArrow=none;html=1;rounded=0;entryX=0.442;entryY=-0.064;entryDx=0;entryDy=0;entryPerimeter=0;exitX=0.375;exitY=0.943;exitDx=0;exitDy=0;exitPerimeter=0;" edge="1" parent="1" source="srRfTzQ2wNrr3aea_epK-3" target="9mGKXTDG_qa7bDeS5Nxo-2">
          <mxGeometry relative="1" as="geometry">
            <mxPoint x="853.5" y="109.75" as="sourcePoint" />
            <mxPoint x="871.5" y="164.75" as="targetPoint" />
          </mxGeometry>
        </mxCell>
        <mxCell id="srRfTzQ2wNrr3aea_epK-16" value="" style="endArrow=none;html=1;rounded=0;exitX=0.6;exitY=0.933;exitDx=0;exitDy=0;exitPerimeter=0;entryX=0.225;entryY=0.114;entryDx=0;entryDy=0;entryPerimeter=0;" edge="1" parent="1" source="srRfTzQ2wNrr3aea_epK-7" target="srRfTzQ2wNrr3aea_epK-3">
          <mxGeometry relative="1" as="geometry">
            <mxPoint x="830.5" y="54.75" as="sourcePoint" />
            <mxPoint x="846.5" y="109.75" as="targetPoint" />
          </mxGeometry>
        </mxCell>
        <mxCell id="srRfTzQ2wNrr3aea_epK-17" value="" style="endArrow=none;html=1;rounded=0;exitX=0.763;exitY=0.114;exitDx=0;exitDy=0;exitPerimeter=0;entryX=0.363;entryY=0.967;entryDx=0;entryDy=0;entryPerimeter=0;" edge="1" parent="1" source="srRfTzQ2wNrr3aea_epK-3" target="srRfTzQ2wNrr3aea_epK-6">
          <mxGeometry relative="1" as="geometry">
            <mxPoint x="845.5" y="62.75" as="sourcePoint" />
            <mxPoint x="851.5" y="88.75" as="targetPoint" />
          </mxGeometry>
        </mxCell>
        <mxCell id="srRfTzQ2wNrr3aea_epK-18" value="" style="endArrow=none;html=1;rounded=0;entryX=0.632;entryY=-0.021;entryDx=0;entryDy=0;entryPerimeter=0;exitX=0;exitY=1;exitDx=0;exitDy=0;" edge="1" parent="1" source="srRfTzQ2wNrr3aea_epK-4" target="9mGKXTDG_qa7bDeS5Nxo-2">
          <mxGeometry relative="1" as="geometry">
            <mxPoint x="913.5" y="110.75" as="sourcePoint" />
            <mxPoint x="905.5" y="169.75" as="targetPoint" />
          </mxGeometry>
        </mxCell>
        <mxCell id="srRfTzQ2wNrr3aea_epK-21" value="" style="endArrow=none;html=1;rounded=0;entryX=0.926;entryY=0;entryDx=0;entryDy=0;entryPerimeter=0;exitX=0;exitY=0.5;exitDx=0;exitDy=0;" edge="1" parent="1" target="9mGKXTDG_qa7bDeS5Nxo-2">
          <mxGeometry relative="1" as="geometry">
            <mxPoint x="918.5" y="142.75" as="sourcePoint" />
            <mxPoint x="873.5" y="178.75" as="targetPoint" />
          </mxGeometry>
        </mxCell>
        <mxCell id="srRfTzQ2wNrr3aea_epK-22" value="" style="endArrow=none;html=1;rounded=0;entryX=1;entryY=0.25;entryDx=0;entryDy=0;exitX=0;exitY=0.5;exitDx=0;exitDy=0;" edge="1" parent="1" target="9mGKXTDG_qa7bDeS5Nxo-2">
          <mxGeometry relative="1" as="geometry">
            <mxPoint x="923.5" y="189.75" as="sourcePoint" />
            <mxPoint x="883.5" y="188.75" as="targetPoint" />
          </mxGeometry>
        </mxCell>
        <mxCell id="srRfTzQ2wNrr3aea_epK-23" value="" style="endArrow=none;html=1;rounded=0;entryX=1;entryY=0.75;entryDx=0;entryDy=0;exitX=0.05;exitY=0.2;exitDx=0;exitDy=0;exitPerimeter=0;" edge="1" parent="1" source="srRfTzQ2wNrr3aea_epK-1" target="9mGKXTDG_qa7bDeS5Nxo-2">
          <mxGeometry relative="1" as="geometry">
            <mxPoint x="951.5" y="139.75" as="sourcePoint" />
            <mxPoint x="893.5" y="198.75" as="targetPoint" />
          </mxGeometry>
        </mxCell>
        <mxCell id="srRfTzQ2wNrr3aea_epK-24" value="Content" style="shape=ext;margin=3;double=1;whiteSpace=wrap;html=1;align=center;" vertex="1" parent="1">
          <mxGeometry x="746.25" y="425" width="117.5" height="52.14" as="geometry" />
        </mxCell>
        <mxCell id="srRfTzQ2wNrr3aea_epK-25" value="ContentID" style="ellipse;whiteSpace=wrap;html=1;align=center;fontStyle=4;" vertex="1" parent="1">
          <mxGeometry x="800" y="340" width="70" height="40" as="geometry" />
        </mxCell>
        <mxCell id="srRfTzQ2wNrr3aea_epK-26" value="TotelComment" style="ellipse;whiteSpace=wrap;html=1;align=center;dashed=1;" vertex="1" parent="1">
          <mxGeometry x="888" y="410" width="90" height="40" as="geometry" />
        </mxCell>
        <mxCell id="srRfTzQ2wNrr3aea_epK-27" value="DatePosted" style="ellipse;whiteSpace=wrap;html=1;align=center;" vertex="1" parent="1">
          <mxGeometry x="848.75" y="515.72" width="80" height="37.86" as="geometry" />
        </mxCell>
        <mxCell id="srRfTzQ2wNrr3aea_epK-28" value="ContentType" style="ellipse;whiteSpace=wrap;html=1;align=center;" vertex="1" parent="1">
          <mxGeometry x="903" y="470" width="85" height="40" as="geometry" />
        </mxCell>
        <mxCell id="srRfTzQ2wNrr3aea_epK-29" value="FilePath" style="ellipse;whiteSpace=wrap;html=1;align=center;" vertex="1" parent="1">
          <mxGeometry x="863.75" y="372.14" width="65" height="37.86" as="geometry" />
        </mxCell>
        <mxCell id="srRfTzQ2wNrr3aea_epK-30" style="edgeStyle=orthogonalEdgeStyle;rounded=0;orthogonalLoop=1;jettySize=auto;html=1;exitX=0.5;exitY=1;exitDx=0;exitDy=0;" edge="1" parent="1" source="srRfTzQ2wNrr3aea_epK-29" target="srRfTzQ2wNrr3aea_epK-29">
          <mxGeometry relative="1" as="geometry" />
        </mxCell>
        <mxCell id="srRfTzQ2wNrr3aea_epK-31" value="" style="endArrow=none;html=1;rounded=0;entryX=0.357;entryY=1;entryDx=0;entryDy=0;exitX=0.75;exitY=0;exitDx=0;exitDy=0;entryPerimeter=0;" edge="1" parent="1" source="srRfTzQ2wNrr3aea_epK-24" target="srRfTzQ2wNrr3aea_epK-25">
          <mxGeometry relative="1" as="geometry">
            <mxPoint x="989.5" y="293.86" as="sourcePoint" />
            <mxPoint x="941.5" y="427.8599999999999" as="targetPoint" />
          </mxGeometry>
        </mxCell>
        <mxCell id="srRfTzQ2wNrr3aea_epK-32" value="" style="endArrow=none;html=1;rounded=0;entryX=0;entryY=1;entryDx=0;entryDy=0;exitX=0.9;exitY=-0.038;exitDx=0;exitDy=0;exitPerimeter=0;" edge="1" parent="1" source="srRfTzQ2wNrr3aea_epK-24" target="srRfTzQ2wNrr3aea_epK-29">
          <mxGeometry relative="1" as="geometry">
            <mxPoint x="936.5" y="459.86" as="sourcePoint" />
            <mxPoint x="951.5" y="437.86" as="targetPoint" />
          </mxGeometry>
        </mxCell>
        <mxCell id="srRfTzQ2wNrr3aea_epK-33" value="" style="endArrow=none;html=1;rounded=0;entryX=0;entryY=0.5;entryDx=0;entryDy=0;" edge="1" parent="1" source="srRfTzQ2wNrr3aea_epK-24" target="srRfTzQ2wNrr3aea_epK-26">
          <mxGeometry relative="1" as="geometry">
            <mxPoint x="946.5" y="469.86" as="sourcePoint" />
            <mxPoint x="974.7113870629462" y="483.25067232241554" as="targetPoint" />
          </mxGeometry>
        </mxCell>
        <mxCell id="srRfTzQ2wNrr3aea_epK-34" value="" style="endArrow=none;html=1;rounded=0;entryX=0.082;entryY=0.325;entryDx=0;entryDy=0;exitX=1;exitY=0.75;exitDx=0;exitDy=0;entryPerimeter=0;" edge="1" parent="1" source="srRfTzQ2wNrr3aea_epK-24" target="srRfTzQ2wNrr3aea_epK-28">
          <mxGeometry relative="1" as="geometry">
            <mxPoint x="956.5" y="479.86" as="sourcePoint" />
            <mxPoint x="971.5" y="457.86" as="targetPoint" />
          </mxGeometry>
        </mxCell>
        <mxCell id="srRfTzQ2wNrr3aea_epK-35" value="" style="endArrow=none;html=1;rounded=0;entryX=0.341;entryY=0.06;entryDx=0;entryDy=0;exitX=0.849;exitY=1.036;exitDx=0;exitDy=0;entryPerimeter=0;exitPerimeter=0;" edge="1" parent="1" source="srRfTzQ2wNrr3aea_epK-24" target="srRfTzQ2wNrr3aea_epK-27">
          <mxGeometry relative="1" as="geometry">
            <mxPoint x="966.5" y="489.86" as="sourcePoint" />
            <mxPoint x="981.5" y="467.86" as="targetPoint" />
          </mxGeometry>
        </mxCell>
        <mxCell id="srRfTzQ2wNrr3aea_epK-37" value="DatePosted" style="ellipse;whiteSpace=wrap;html=1;align=center;" vertex="1" parent="1">
          <mxGeometry x="828.5" y="676.7900000000002" width="90" height="32.14" as="geometry" />
        </mxCell>
        <mxCell id="srRfTzQ2wNrr3aea_epK-38" value="TextContent" style="ellipse;whiteSpace=wrap;html=1;align=center;" vertex="1" parent="1">
          <mxGeometry x="748.5" y="693.9300000000001" width="80" height="32.14" as="geometry" />
        </mxCell>
        <mxCell id="srRfTzQ2wNrr3aea_epK-39" value="CommentID" style="ellipse;whiteSpace=wrap;html=1;align=center;fontStyle=4;" vertex="1" parent="1">
          <mxGeometry x="668.5" y="685" width="80" height="30" as="geometry" />
        </mxCell>
        <mxCell id="srRfTzQ2wNrr3aea_epK-41" value="" style="endArrow=none;html=1;rounded=0;exitX=0.875;exitY=0.202;exitDx=0;exitDy=0;exitPerimeter=0;entryX=0.393;entryY=0.833;entryDx=0;entryDy=0;entryPerimeter=0;" edge="1" parent="1" target="srRfTzQ2wNrr3aea_epK-113">
          <mxGeometry width="50" height="50" relative="1" as="geometry">
            <mxPoint x="723.5" y="683.9199999999998" as="sourcePoint" />
            <mxPoint x="741" y="653.9300000000001" as="targetPoint" />
          </mxGeometry>
        </mxCell>
        <mxCell id="srRfTzQ2wNrr3aea_epK-42" value="" style="endArrow=none;html=1;rounded=0;exitX=0.5;exitY=0;exitDx=0;exitDy=0;" edge="1" parent="1" source="srRfTzQ2wNrr3aea_epK-38" target="srRfTzQ2wNrr3aea_epK-113">
          <mxGeometry width="50" height="50" relative="1" as="geometry">
            <mxPoint x="695.5" y="690.9300000000001" as="sourcePoint" />
            <mxPoint x="738.5" y="660" as="targetPoint" />
          </mxGeometry>
        </mxCell>
        <mxCell id="srRfTzQ2wNrr3aea_epK-43" value="" style="endArrow=none;html=1;rounded=0;entryX=0.75;entryY=1;entryDx=0;entryDy=0;exitX=0;exitY=0;exitDx=0;exitDy=0;" edge="1" parent="1" source="srRfTzQ2wNrr3aea_epK-37" target="srRfTzQ2wNrr3aea_epK-113">
          <mxGeometry width="50" height="50" relative="1" as="geometry">
            <mxPoint x="705.5" y="700.9300000000001" as="sourcePoint" />
            <mxPoint x="796" y="653.9300000000001" as="targetPoint" />
          </mxGeometry>
        </mxCell>
        <mxCell id="srRfTzQ2wNrr3aea_epK-45" value="UpgradeID" style="ellipse;whiteSpace=wrap;html=1;align=center;fontStyle=4;" vertex="1" parent="1">
          <mxGeometry x="245.5" y="833.3900000000001" width="80" height="30" as="geometry" />
        </mxCell>
        <mxCell id="srRfTzQ2wNrr3aea_epK-46" value="DateUpgraded" style="ellipse;whiteSpace=wrap;html=1;align=center;" vertex="1" parent="1">
          <mxGeometry x="135.5" y="833.3900000000001" width="90" height="40" as="geometry" />
        </mxCell>
        <mxCell id="srRfTzQ2wNrr3aea_epK-47" value="" style="endArrow=none;html=1;rounded=0;entryX=0.744;entryY=0;entryDx=0;entryDy=0;exitX=0.436;exitY=0.9;exitDx=0;exitDy=0;entryPerimeter=0;exitPerimeter=0;" edge="1" parent="1" source="srRfTzQ2wNrr3aea_epK-109" target="srRfTzQ2wNrr3aea_epK-46">
          <mxGeometry width="50" height="50" relative="1" as="geometry">
            <mxPoint x="163.4749999999999" y="969.32" as="sourcePoint" />
            <mxPoint x="595.5" y="990.82" as="targetPoint" />
          </mxGeometry>
        </mxCell>
        <mxCell id="srRfTzQ2wNrr3aea_epK-48" value="" style="endArrow=none;html=1;rounded=0;exitX=0.579;exitY=0.883;exitDx=0;exitDy=0;exitPerimeter=0;" edge="1" parent="1" source="srRfTzQ2wNrr3aea_epK-109" target="srRfTzQ2wNrr3aea_epK-45">
          <mxGeometry width="50" height="50" relative="1" as="geometry">
            <mxPoint x="191.53500000000008" y="970.32" as="sourcePoint" />
            <mxPoint x="235.5" y="1017.32" as="targetPoint" />
          </mxGeometry>
        </mxCell>
        <mxCell id="srRfTzQ2wNrr3aea_epK-82" style="edgeStyle=orthogonalEdgeStyle;rounded=0;orthogonalLoop=1;jettySize=auto;html=1;exitX=0;exitY=0.5;exitDx=0;exitDy=0;endArrow=ERmandOne;endFill=0;" edge="1" parent="1" source="srRfTzQ2wNrr3aea_epK-49" target="9mGKXTDG_qa7bDeS5Nxo-1">
          <mxGeometry relative="1" as="geometry">
            <mxPoint x="360" y="282" as="targetPoint" />
            <Array as="points">
              <mxPoint x="510" y="450" />
              <mxPoint x="490" y="450" />
              <mxPoint x="490" y="260" />
            </Array>
          </mxGeometry>
        </mxCell>
        <mxCell id="srRfTzQ2wNrr3aea_epK-83" style="edgeStyle=orthogonalEdgeStyle;rounded=0;orthogonalLoop=1;jettySize=auto;html=1;entryX=0;entryY=0.5;entryDx=0;entryDy=0;endArrow=ERzeroToMany;endFill=0;" edge="1" parent="1" source="srRfTzQ2wNrr3aea_epK-49" target="srRfTzQ2wNrr3aea_epK-24">
          <mxGeometry relative="1" as="geometry">
            <Array as="points">
              <mxPoint x="690" y="430" />
              <mxPoint x="690" y="440" />
              <mxPoint x="746" y="440" />
            </Array>
          </mxGeometry>
        </mxCell>
        <mxCell id="srRfTzQ2wNrr3aea_epK-49" value="Post Content" style="shape=rhombus;perimeter=rhombusPerimeter;whiteSpace=wrap;html=1;align=center;rotation=0;" vertex="1" parent="1">
          <mxGeometry x="513.5" y="398.93" width="120" height="62.14" as="geometry" />
        </mxCell>
        <mxCell id="srRfTzQ2wNrr3aea_epK-50" value="Relationship" style="shape=rhombus;perimeter=rhombusPerimeter;whiteSpace=wrap;html=1;align=center;" vertex="1" parent="1">
          <mxGeometry x="940" y="850" width="120" height="60" as="geometry" />
        </mxCell>
        <mxCell id="srRfTzQ2wNrr3aea_epK-93" style="edgeStyle=orthogonalEdgeStyle;rounded=0;orthogonalLoop=1;jettySize=auto;html=1;endArrow=ERzeroToMany;endFill=0;" edge="1" parent="1" source="srRfTzQ2wNrr3aea_epK-51" target="9mGKXTDG_qa7bDeS5Nxo-1">
          <mxGeometry relative="1" as="geometry">
            <Array as="points">
              <mxPoint x="540" y="380" />
              <mxPoint x="540" y="245" />
            </Array>
          </mxGeometry>
        </mxCell>
        <mxCell id="srRfTzQ2wNrr3aea_epK-51" value="View Content" style="shape=rhombus;perimeter=rhombusPerimeter;whiteSpace=wrap;html=1;align=center;" vertex="1" parent="1">
          <mxGeometry x="610" y="350" width="120" height="60" as="geometry" />
        </mxCell>
        <mxCell id="srRfTzQ2wNrr3aea_epK-86" style="edgeStyle=orthogonalEdgeStyle;rounded=0;orthogonalLoop=1;jettySize=auto;html=1;endArrow=ERzeroToMany;endFill=0;entryX=1;entryY=0.1;entryDx=0;entryDy=0;entryPerimeter=0;" edge="1" parent="1" source="srRfTzQ2wNrr3aea_epK-53" target="9mGKXTDG_qa7bDeS5Nxo-1">
          <mxGeometry relative="1" as="geometry">
            <mxPoint x="390" y="240" as="targetPoint" />
            <Array as="points" />
          </mxGeometry>
        </mxCell>
        <mxCell id="srRfTzQ2wNrr3aea_epK-87" style="edgeStyle=orthogonalEdgeStyle;rounded=0;orthogonalLoop=1;jettySize=auto;html=1;entryX=0;entryY=0.25;entryDx=0;entryDy=0;endArrow=ERzeroToMany;endFill=0;" edge="1" parent="1" source="srRfTzQ2wNrr3aea_epK-53" target="9mGKXTDG_qa7bDeS5Nxo-2">
          <mxGeometry relative="1" as="geometry">
            <mxPoint x="683.4386503067485" y="210.54999999999995" as="sourcePoint" />
          </mxGeometry>
        </mxCell>
        <mxCell id="srRfTzQ2wNrr3aea_epK-53" value="Become Friends with&amp;nbsp;" style="shape=rhombus;perimeter=rhombusPerimeter;whiteSpace=wrap;html=1;align=center;" vertex="1" parent="1">
          <mxGeometry x="580" y="169.75" width="100" height="81.5" as="geometry" />
        </mxCell>
        <mxCell id="srRfTzQ2wNrr3aea_epK-80" value="" style="edgeStyle=orthogonalEdgeStyle;rounded=0;orthogonalLoop=1;jettySize=auto;html=1;exitX=1;exitY=0.5;exitDx=0;exitDy=0;endArrow=ERzeroToMany;endFill=0;" edge="1" parent="1" source="srRfTzQ2wNrr3aea_epK-54" target="9mGKXTDG_qa7bDeS5Nxo-1">
          <mxGeometry relative="1" as="geometry">
            <mxPoint x="450" y="369.5" as="sourcePoint" />
            <mxPoint x="347" y="300.5" as="targetPoint" />
            <Array as="points">
              <mxPoint x="450" y="373" />
              <mxPoint x="450" y="280" />
            </Array>
          </mxGeometry>
        </mxCell>
        <mxCell id="srRfTzQ2wNrr3aea_epK-81" style="edgeStyle=orthogonalEdgeStyle;rounded=0;orthogonalLoop=1;jettySize=auto;html=1;exitX=0;exitY=0.5;exitDx=0;exitDy=0;endArrow=ERzeroToMany;endFill=0;" edge="1" parent="1" source="srRfTzQ2wNrr3aea_epK-54" target="9mGKXTDG_qa7bDeS5Nxo-1">
          <mxGeometry relative="1" as="geometry">
            <mxPoint x="320" y="310" as="targetPoint" />
            <Array as="points">
              <mxPoint x="320" y="370" />
              <mxPoint x="320" y="370" />
            </Array>
          </mxGeometry>
        </mxCell>
        <mxCell id="srRfTzQ2wNrr3aea_epK-54" value="Become friends with Other Artist" style="shape=rhombus;perimeter=rhombusPerimeter;whiteSpace=wrap;html=1;align=center;" vertex="1" parent="1">
          <mxGeometry x="320" y="317.57" width="110" height="111" as="geometry" />
        </mxCell>
        <mxCell id="srRfTzQ2wNrr3aea_epK-126" style="edgeStyle=orthogonalEdgeStyle;rounded=0;orthogonalLoop=1;jettySize=auto;html=1;entryX=0;entryY=0.75;entryDx=0;entryDy=0;endArrow=ERzeroToMany;endFill=0;" edge="1" parent="1" source="srRfTzQ2wNrr3aea_epK-55" target="9mGKXTDG_qa7bDeS5Nxo-2">
          <mxGeometry relative="1" as="geometry" />
        </mxCell>
        <mxCell id="srRfTzQ2wNrr3aea_epK-55" value="Follow Artist" style="shape=rhombus;perimeter=rhombusPerimeter;whiteSpace=wrap;html=1;align=center;" vertex="1" parent="1">
          <mxGeometry x="633.5" y="251.25" width="120" height="60" as="geometry" />
        </mxCell>
        <mxCell id="srRfTzQ2wNrr3aea_epK-85" style="edgeStyle=orthogonalEdgeStyle;rounded=0;orthogonalLoop=1;jettySize=auto;html=1;endArrow=ERzeroToMany;endFill=0;exitX=0;exitY=0.5;exitDx=0;exitDy=0;" edge="1" parent="1" source="srRfTzQ2wNrr3aea_epK-55" target="9mGKXTDG_qa7bDeS5Nxo-1">
          <mxGeometry relative="1" as="geometry">
            <mxPoint x="380" y="260" as="targetPoint" />
            <Array as="points">
              <mxPoint x="590" y="281" />
              <mxPoint x="590" y="295" />
              <mxPoint x="560" y="295" />
              <mxPoint x="560" y="230" />
            </Array>
          </mxGeometry>
        </mxCell>
        <mxCell id="srRfTzQ2wNrr3aea_epK-91" style="edgeStyle=orthogonalEdgeStyle;rounded=0;orthogonalLoop=1;jettySize=auto;html=1;entryX=0.37;entryY=0.082;entryDx=0;entryDy=0;entryPerimeter=0;endArrow=ERzeroToMany;endFill=0;" edge="1" parent="1" source="srRfTzQ2wNrr3aea_epK-51" target="srRfTzQ2wNrr3aea_epK-24">
          <mxGeometry relative="1" as="geometry" />
        </mxCell>
        <mxCell id="srRfTzQ2wNrr3aea_epK-92" style="edgeStyle=orthogonalEdgeStyle;rounded=0;orthogonalLoop=1;jettySize=auto;html=1;endArrow=ERzeroToMany;endFill=0;" edge="1" parent="1" source="srRfTzQ2wNrr3aea_epK-51" target="9mGKXTDG_qa7bDeS5Nxo-2">
          <mxGeometry relative="1" as="geometry">
            <Array as="points">
              <mxPoint x="670" y="320" />
              <mxPoint x="810" y="320" />
            </Array>
          </mxGeometry>
        </mxCell>
        <mxCell id="srRfTzQ2wNrr3aea_epK-96" value="" style="endArrow=none;html=1;rounded=0;" edge="1" parent="1" source="srRfTzQ2wNrr3aea_epK-103">
          <mxGeometry relative="1" as="geometry">
            <mxPoint x="217.5" y="570" as="sourcePoint" />
            <mxPoint x="217.5" y="390" as="targetPoint" />
          </mxGeometry>
        </mxCell>
        <mxCell id="srRfTzQ2wNrr3aea_epK-97" value="" style="endArrow=none;html=1;rounded=0;exitX=0.337;exitY=0.067;exitDx=0;exitDy=0;exitPerimeter=0;" edge="1" parent="1" source="srRfTzQ2wNrr3aea_epK-106" target="srRfTzQ2wNrr3aea_epK-103">
          <mxGeometry relative="1" as="geometry">
            <mxPoint x="195.5" y="670.93" as="sourcePoint" />
            <mxPoint x="206.75" y="621.43" as="targetPoint" />
          </mxGeometry>
        </mxCell>
        <mxCell id="srRfTzQ2wNrr3aea_epK-98" value="" style="endArrow=none;html=1;rounded=0;exitX=0.295;exitY=0.702;exitDx=0;exitDy=0;exitPerimeter=0;" edge="1" parent="1" source="srRfTzQ2wNrr3aea_epK-103" target="srRfTzQ2wNrr3aea_epK-108">
          <mxGeometry relative="1" as="geometry">
            <mxPoint x="315.5" y="67.86" as="sourcePoint" />
            <mxPoint x="35.5" y="717.86" as="targetPoint" />
          </mxGeometry>
        </mxCell>
        <mxCell id="srRfTzQ2wNrr3aea_epK-102" value="" style="endArrow=none;html=1;rounded=0;entryX=0.75;entryY=0;entryDx=0;entryDy=0;exitX=0.768;exitY=0.59;exitDx=0;exitDy=0;exitPerimeter=0;" edge="1" parent="1" source="srRfTzQ2wNrr3aea_epK-103" target="srRfTzQ2wNrr3aea_epK-104">
          <mxGeometry relative="1" as="geometry">
            <mxPoint x="374.48971463468934" y="85.85844272047403" as="sourcePoint" />
            <mxPoint x="635.5" y="67.86" as="targetPoint" />
          </mxGeometry>
        </mxCell>
        <mxCell id="srRfTzQ2wNrr3aea_epK-104" value="New Commer Artists" style="whiteSpace=wrap;html=1;align=center;" vertex="1" parent="1">
          <mxGeometry x="280" y="663.9300000000001" width="95" height="30" as="geometry" />
        </mxCell>
        <mxCell id="srRfTzQ2wNrr3aea_epK-106" value="General Artists" style="whiteSpace=wrap;html=1;align=center;" vertex="1" parent="1">
          <mxGeometry x="161" y="663.9300000000002" width="95" height="30" as="geometry" />
        </mxCell>
        <mxCell id="srRfTzQ2wNrr3aea_epK-107" style="edgeStyle=orthogonalEdgeStyle;rounded=0;orthogonalLoop=1;jettySize=auto;html=1;exitX=0.5;exitY=0;exitDx=0;exitDy=0;entryX=0.58;entryY=0.15;entryDx=0;entryDy=0;entryPerimeter=0;" edge="1" parent="1" source="srRfTzQ2wNrr3aea_epK-106" target="srRfTzQ2wNrr3aea_epK-106">
          <mxGeometry relative="1" as="geometry" />
        </mxCell>
        <mxCell id="srRfTzQ2wNrr3aea_epK-108" value="Senior Artists" style="whiteSpace=wrap;html=1;align=center;" vertex="1" parent="1">
          <mxGeometry x="21" y="661.79" width="99" height="30" as="geometry" />
        </mxCell>
        <mxCell id="srRfTzQ2wNrr3aea_epK-110" style="edgeStyle=orthogonalEdgeStyle;rounded=0;orthogonalLoop=1;jettySize=auto;html=1;endArrow=ERmandOne;endFill=0;" edge="1" parent="1" source="srRfTzQ2wNrr3aea_epK-109" target="srRfTzQ2wNrr3aea_epK-108">
          <mxGeometry relative="1" as="geometry" />
        </mxCell>
        <mxCell id="srRfTzQ2wNrr3aea_epK-111" style="edgeStyle=orthogonalEdgeStyle;rounded=0;orthogonalLoop=1;jettySize=auto;html=1;endArrow=ERzeroToMany;endFill=0;" edge="1" parent="1" source="srRfTzQ2wNrr3aea_epK-109" target="srRfTzQ2wNrr3aea_epK-106">
          <mxGeometry relative="1" as="geometry">
            <mxPoint x="235.5" y="757.86" as="targetPoint" />
          </mxGeometry>
        </mxCell>
        <mxCell id="srRfTzQ2wNrr3aea_epK-112" style="edgeStyle=orthogonalEdgeStyle;rounded=0;orthogonalLoop=1;jettySize=auto;html=1;endArrow=ERzeroToMany;endFill=0;entryX=0.5;entryY=1;entryDx=0;entryDy=0;" edge="1" parent="1" source="srRfTzQ2wNrr3aea_epK-109" target="srRfTzQ2wNrr3aea_epK-104">
          <mxGeometry relative="1" as="geometry">
            <mxPoint x="355.5" y="667.86" as="targetPoint" />
          </mxGeometry>
        </mxCell>
        <mxCell id="srRfTzQ2wNrr3aea_epK-109" value="Upgrade" style="shape=associativeEntity;whiteSpace=wrap;html=1;align=center;" vertex="1" parent="1">
          <mxGeometry x="170.5" y="762.3200000000002" width="140" height="60" as="geometry" />
        </mxCell>
        <mxCell id="srRfTzQ2wNrr3aea_epK-124" style="edgeStyle=orthogonalEdgeStyle;rounded=0;orthogonalLoop=1;jettySize=auto;html=1;endArrow=ERzeroToMany;endFill=0;" edge="1" parent="1" source="srRfTzQ2wNrr3aea_epK-113">
          <mxGeometry relative="1" as="geometry">
            <mxPoint x="780" y="480" as="targetPoint" />
            <Array as="points">
              <mxPoint x="780" y="541" />
              <mxPoint x="781" y="541" />
            </Array>
          </mxGeometry>
        </mxCell>
        <mxCell id="srRfTzQ2wNrr3aea_epK-130" style="edgeStyle=orthogonalEdgeStyle;rounded=0;orthogonalLoop=1;jettySize=auto;html=1;entryX=0.5;entryY=1;entryDx=0;entryDy=0;" edge="1" parent="1" source="srRfTzQ2wNrr3aea_epK-113" target="9mGKXTDG_qa7bDeS5Nxo-1">
          <mxGeometry relative="1" as="geometry">
            <Array as="points">
              <mxPoint x="390" y="640" />
              <mxPoint x="390" y="510" />
              <mxPoint x="287" y="510" />
              <mxPoint x="287" y="290" />
            </Array>
          </mxGeometry>
        </mxCell>
        <mxCell id="srRfTzQ2wNrr3aea_epK-113" value="Comments" style="shape=associativeEntity;whiteSpace=wrap;html=1;align=center;" vertex="1" parent="1">
          <mxGeometry x="735" y="597.86" width="140" height="60" as="geometry" />
        </mxCell>
        <mxCell id="srRfTzQ2wNrr3aea_epK-114" value="IS A" style="strokeWidth=2;html=1;shape=mxgraph.flowchart.merge_or_storage;whiteSpace=wrap;" vertex="1" parent="1">
          <mxGeometry x="622.5" y="488.58000000000004" width="95" height="65" as="geometry" />
        </mxCell>
        <mxCell id="srRfTzQ2wNrr3aea_epK-115" value="Articles" style="whiteSpace=wrap;html=1;align=center;" vertex="1" parent="1">
          <mxGeometry x="614.75" y="585" width="67.5" height="25" as="geometry" />
        </mxCell>
        <mxCell id="srRfTzQ2wNrr3aea_epK-116" value="Short Videos" style="whiteSpace=wrap;html=1;align=center;" vertex="1" parent="1">
          <mxGeometry x="520" y="580" width="80" height="30" as="geometry" />
        </mxCell>
        <mxCell id="srRfTzQ2wNrr3aea_epK-117" value="Photos" style="whiteSpace=wrap;html=1;align=center;" vertex="1" parent="1">
          <mxGeometry x="440" y="580" width="60" height="30" as="geometry" />
        </mxCell>
        <mxCell id="srRfTzQ2wNrr3aea_epK-119" value="" style="endArrow=none;html=1;rounded=0;exitX=0.67;exitY=0.025;exitDx=0;exitDy=0;exitPerimeter=0;entryX=0.284;entryY=0.523;entryDx=0;entryDy=0;entryPerimeter=0;" edge="1" parent="1" source="srRfTzQ2wNrr3aea_epK-117" target="srRfTzQ2wNrr3aea_epK-114">
          <mxGeometry relative="1" as="geometry">
            <mxPoint x="450" y="720" as="sourcePoint" />
            <mxPoint x="790" y="588" as="targetPoint" />
          </mxGeometry>
        </mxCell>
        <mxCell id="srRfTzQ2wNrr3aea_epK-120" value="" style="endArrow=none;html=1;rounded=0;exitX=0.61;exitY=-0.025;exitDx=0;exitDy=0;exitPerimeter=0;" edge="1" parent="1" source="srRfTzQ2wNrr3aea_epK-116" target="srRfTzQ2wNrr3aea_epK-114">
          <mxGeometry relative="1" as="geometry">
            <mxPoint x="450" y="720" as="sourcePoint" />
            <mxPoint x="820" y="620" as="targetPoint" />
          </mxGeometry>
        </mxCell>
        <mxCell id="srRfTzQ2wNrr3aea_epK-121" value="" style="endArrow=none;html=1;rounded=0;entryX=0.705;entryY=0.538;entryDx=0;entryDy=0;entryPerimeter=0;" edge="1" parent="1" source="srRfTzQ2wNrr3aea_epK-115" target="srRfTzQ2wNrr3aea_epK-114">
          <mxGeometry relative="1" as="geometry">
            <mxPoint x="920" y="720" as="sourcePoint" />
            <mxPoint x="833" y="620" as="targetPoint" />
          </mxGeometry>
        </mxCell>
        <mxCell id="srRfTzQ2wNrr3aea_epK-103" value="IS A" style="strokeWidth=2;html=1;shape=mxgraph.flowchart.merge_or_storage;whiteSpace=wrap;" vertex="1" parent="1">
          <mxGeometry x="135.5" y="560" width="95" height="60" as="geometry" />
        </mxCell>
        <mxCell id="srRfTzQ2wNrr3aea_epK-131" style="edgeStyle=orthogonalEdgeStyle;rounded=0;orthogonalLoop=1;jettySize=auto;html=1;entryX=0.7;entryY=0.988;entryDx=0;entryDy=0;entryPerimeter=0;" edge="1" parent="1" source="srRfTzQ2wNrr3aea_epK-113" target="9mGKXTDG_qa7bDeS5Nxo-2">
          <mxGeometry relative="1" as="geometry">
            <Array as="points">
              <mxPoint x="1020" y="630" />
              <mxPoint x="1020" y="300" />
              <mxPoint x="864" y="300" />
            </Array>
          </mxGeometry>
        </mxCell>
      </root>
    </mxGraphModel>
  </diagram>
</mxfile>
